<svg xmlns="http://www.w3.org/2000/svg" width="97.383" height="22.126" viewBox="0 0 97.383 22.126">
  <g id="Group_2" data-name="Group 2" transform="translate(-14.914 -17.999)">
    <path id="Path_1" data-name="Path 1" d="M23.075,33.895H14.914l.185-1.087,9.2-12.091h3.861L26.428,31.605h2.243l-.393,2.289H26.058l-.509,3.352H22.567Zm.416-2.289,1.318-8.392-6.2,8.392Z" transform="translate(0 -1.561)" fill="#fff"/>
    <path id="Path_2" data-name="Path 2" d="M55.51,24.124h2.8L56.389,36.216h-2.8Zm.254-3.584a1.634,1.634,0,0,1,1.665-1.619,1.6,1.6,0,0,1,1.642,1.6,1.634,1.634,0,0,1-1.665,1.618A1.6,1.6,0,0,1,55.764,20.541Z" transform="translate(-22.219 -0.53)" fill="#fff"/>
    <path id="Path_3" data-name="Path 3" d="M72.183,34.55a32.266,32.266,0,0,0,.37-3.745h2.682A20.072,20.072,0,0,1,75.1,33.07a4.8,4.8,0,0,1,4.185-2.52c2.427,0,4.069,1.434,3.491,5.086L81.616,42.9h-2.8l1.156-7.4c.3-1.78-.323-2.636-1.78-2.636a3.412,3.412,0,0,0-3.445,3.144L73.663,42.9h-2.8Z" transform="translate(-32.143 -7.21)" fill="#fff"/>
    <path id="Path_4" data-name="Path 4" d="M105.521,39.128h2.636c.092,1.11.647,1.942,2.451,1.942,1.387,0,2.035-.554,2.035-1.572,0-.879-.532-1.248-2.289-1.642-2.705-.624-3.792-1.618-3.792-3.537,0-2.5,2.174-3.769,4.693-3.769,2.59,0,4.462,1.064,4.625,3.653h-2.59c-.07-.971-.832-1.618-2.1-1.618s-1.988.532-1.988,1.457c0,.786.578,1.156,2.242,1.549,2.659.6,3.954,1.41,3.954,3.676,0,2.451-1.965,3.884-4.879,3.884C107.255,43.15,105.544,41.486,105.521,39.128Z" transform="translate(-52.052 -7.21)" fill="#fff"/>
    <path id="Path_5" data-name="Path 5" d="M137.969,24.124h2.8l-1.919,12.092h-2.8Zm.254-3.584a1.634,1.634,0,0,1,1.665-1.619,1.6,1.6,0,0,1,1.642,1.6,1.634,1.634,0,0,1-1.665,1.618A1.594,1.594,0,0,1,138.223,20.541Z" transform="translate(-69.591 -0.53)" fill="#fff"/>
    <path id="Path_6" data-name="Path 6" d="M163.91,42.249c-.532,3.4-2.543,5.086-6.242,5.086-4.115,0-5.572-2.011-5.757-4.023h2.8c.185,1.041,1.017,1.9,2.891,1.9,2.265,0,3.213-1.133,3.537-3.075l.277-1.711a4.393,4.393,0,0,1-3.861,1.965c-2.844,0-4.856-1.965-4.856-5.133,0-3.745,2.52-6.7,6.011-6.7a4.022,4.022,0,0,1,3.907,2.243l.324-1.988h2.775Zm-1.757-6.52a2.81,2.81,0,0,0-2.982-3.006c-2.266,0-3.584,2.081-3.584,4.37,0,1.873.925,3.168,2.728,3.168C160.442,40.261,162.153,38.5,162.153,35.729Z" transform="translate(-78.703 -7.21)" fill="#fff"/>
    <path id="Path_7" data-name="Path 7" d="M193.059,18h2.775l-1.2,7.653a4.653,4.653,0,0,1,4.046-2.312c2.428,0,4.07,1.434,3.491,5.086l-1.156,7.26h-2.8l1.156-7.4c.3-1.78-.323-2.636-1.78-2.636a3.412,3.412,0,0,0-3.445,3.144l-1.086,6.89h-2.8Z" transform="translate(-100.734)" fill="#fff"/>
    <path id="Path_8" data-name="Path 8" d="M227.118,35.974l.994-6.312h-1.618l.324-2.1h1.618l.439-2.659h2.8l-.439,2.659h2.612l-.324,2.1H230.91l-.994,6.289c-.185,1.225.231,1.618,1.225,1.618a3.765,3.765,0,0,0,1.318-.231l-.347,2.219a4.575,4.575,0,0,1-1.734.3C227.835,39.858,226.725,38.4,227.118,35.974Z" transform="translate(-121.549 -3.965)" fill="#fff"/>
  </g>
</svg>
