<svg xmlns="http://www.w3.org/2000/svg" width="97.383" height="22.126" viewBox="0 0 465.32001 83.199997">
  <g transform="matrix(1.3333333,0,0,-1.3333333,0,83.2)" id="g10">
    <g transform="scale(0.1)" id="g12">
      <path id="path14" style="fill:#ffffff;fill-opacity:1;fill-rule:nonzero;stroke:none" d="M 1299.99,247.809 C 1283.3,152.18 1237.54,99.6055 1171.4,99.6055 c -57.84,0 -66.43,43.2075 -66.43,69.0275 0,8.652 0.73,21.859 2.68,30.59 l 47.38,269.484 -109.71,1.309 -47.144,-267.914 c -2.86,-17.157 -4.641,-38.539 -4.641,-54.489 C 993.535,59.3086 1059.23,0 1156.75,0 c 62.57,0 96.03,30.5586 111.16,50.4063 l 70.48,-44.74224 h 25.41 l 84.8,463.04294 -109.8,1.309 -38.81,-222.207" />
      <path id="path16" style="fill:#ffffff;fill-opacity:1;fill-rule:nonzero;stroke:none" d="m 1717.93,99.6055 c -59.54,0 -88.26,30.6325 -88.26,93.7465 0,96.144 44.53,199.8 142.28,199.8 61.71,0 89.05,-28.933 89.05,-93.734 0,-82.977 -44.43,-199.8125 -143.07,-199.8125 z m 77.66,393.1605 c -49.48,0 -90.44,-16.121 -124.88,-49.039 l 31.68,178.851 -109.76,1.375 L 1480.66,5.66406 h 29 L 1598.88,54.043 C 1627.23,17.6797 1667.49,0 1721.58,0 c 161.8,0 248.98,154.262 248.98,299.418 0,115.617 -70.25,193.348 -174.97,193.348" />
      <path id="path18" style="fill:#ffffff;fill-opacity:1;fill-rule:nonzero;stroke:none" d="m 2252.49,492.766 c -89.18,0 -193.32,-39.485 -193.32,-150.414 0,-66.176 47.97,-114.282 131.21,-131.879 80.75,-16.953 100.99,-24.571 100.99,-50.024 0,-52.984 -58.72,-60.8435 -93.74,-60.8435 -64.45,0 -72.7,24.6565 -72.7,46.2145 0,8.243 0.9,15.114 2.29,19.657 h -107.31 -0.74 c -2.74,-10.172 -3.8,-18.231 -3.8,-28.832 C 2015.37,54.957 2088.52,0 2197.63,0 c 98.33,0 203.36,42.0547 203.36,160.449 0,67.254 -44.5,115.039 -122.01,130.953 -82.92,16.961 -109.33,23.676 -109.33,50.95 0,41.988 45.09,50.8 82.84,50.8 40.32,0 64.58,-12.136 64.58,-32.504 0,-6.886 -1.35,-18.515 -1.35,-18.515 h 107.22 l 0.82,2.68 c 0,0.402 2.01,8.492 2.01,20.402 0,77.555 -68.1,127.551 -173.28,127.551" />
      <path id="path20" style="fill:#ffffff;fill-opacity:1;fill-rule:nonzero;stroke:none" d="m 752.637,492.766 c -89.157,0 -193.227,-39.485 -193.227,-150.414 0,-66.176 47.797,-114.282 131.125,-131.879 80.735,-16.953 101.145,-24.571 101.145,-50.024 0,-52.984 -58.809,-60.8435 -93.938,-60.8435 -64.566,0 -72.551,24.6565 -72.551,46.2145 0,8.243 0.692,15.114 2.188,19.657 h -107.32 -0.625 c -2.856,-10.172 -4.067,-18.231 -4.067,-28.832 C 515.367,54.957 588.652,0 697.742,0 796.207,0 901.25,42.0547 901.25,160.449 c 0,67.254 -44.547,115.039 -122.055,130.953 -83.078,16.961 -109.156,23.676 -109.156,50.95 0,41.988 44.934,50.8 82.598,50.8 40.562,0 64.547,-12.136 64.547,-32.504 0,-6.886 -1.067,-18.515 -1.067,-18.515 h 107.074 l 0.747,2.68 c 0.062,0.402 2.097,8.492 2.097,20.402 0,77.555 -68.121,127.551 -173.398,127.551" />
      <path id="path22" style="fill:#ffffff;fill-opacity:1;fill-rule:nonzero;stroke:none" d="m 2822.26,291.766 -206.82,-0.364 v 3.157 c 6.56,27.925 32.08,98.593 123.1,98.593 77.91,0 86.49,-52.793 86.49,-75.382 0,-7.926 -2.77,-26.004 -2.77,-26.004 z m -79.02,201 c -155.8,0 -256.49,-116.493 -256.49,-296.77 C 2486.75,76.9922 2565.66,0 2687.45,0 c 104.93,0 178.07,50.8438 205.74,143.328 l 1.39,6.473 H 2786.82 2786 c -25.83,-44.586 -61.48,-50.1955 -92.98,-50.1955 -85.57,0 -94.74,59.1175 -94.74,84.6135 0,5.949 0,14.504 0.23,16.754 l 6.01,0.039 h 315.91 l 9.48,43.785 c 3.88,20.766 5.66,40.375 5.66,60.07 0,115.926 -73.68,187.899 -192.33,187.899" />
      <path id="path24" style="fill:#ffffff;fill-opacity:1;fill-rule:nonzero;stroke:none" d="m 3201.82,99.6055 c -70.68,0 -85.6,53.9575 -85.6,99.1175 0,93.668 44.7,194.429 142.3,194.429 58.54,0 88.18,-31.254 88.18,-92.922 0,-77.531 -39.2,-200.6245 -144.88,-200.6245 z m 188.63,375.7035 -13.78,-36.442 c -25.37,34.34 -70.72,53.899 -125.44,53.899 -72.97,0 -135.31,-31.504 -180.82,-90.887 -41.09,-53.941 -63.67,-126.102 -63.67,-203.156 C 3006.74,81.793 3079.81,0 3184.32,0 c 64.88,0 99,24.2813 124.88,52.0039 l 76.55,-46.33984 h 25.16 l 78.97,469.64494 h -99.43" />
      <path id="path26" style="fill:#ffffff;fill-opacity:1;fill-rule:nonzero;stroke:none" d="M 305.852,259.188 H 97.8359 l 8.8091,9.097 231.683,227.067 10.219,9.683 z M 349.609,609.02 0,259.59 v -78.731 h 290.473 l -1.231,-8.703 -26.945,-157.2224 h 87.312 l 29.868,169.1754 h 65.586 v 21.532 l -52.856,50.222 62.246,353.157 H 349.609" />
    </g>
  </g>
</svg>